<svg width="195" height="64" viewBox="0 0 195 64" fill="none" xmlns="http://www.w3.org/2000/svg">
<path d="M23.199 24.7C23.8886 25.5857 24.4797 26.5697 24.9722 27.7014C25.4155 28.7839 25.9573 30.26 26.5976 32.0805C27.2872 34.0486 27.8783 35.6724 28.4201 36.8532C28.9619 38.0341 29.6514 39.0674 30.4888 39.8546C31.3261 40.6419 32.3604 41.0847 33.5426 41.0847V41.5276C31.5231 41.5276 29.947 41.3307 28.8141 40.9863C27.632 40.5927 26.7454 40.0022 26.1051 39.215C25.4648 38.4277 24.7752 37.2469 24.0856 35.7216C23.6916 34.7867 23.2483 33.655 22.7557 32.3757C21.9677 30.3092 21.2781 28.6855 20.7363 27.5046C20.1452 26.2745 19.4064 25.2412 18.5198 24.4048C17.6332 23.5191 16.5989 23.1255 15.3675 23.1255H10.7868V38.7722C10.7868 39.3134 10.8853 39.8546 11.1316 40.3467C11.3286 40.8387 11.6734 41.1339 12.1167 41.1339V41.5768H5.81207V41.1339C6.25537 41.1339 6.5509 40.8879 6.79717 40.3467C7.04344 39.8054 7.14195 39.3134 7.14195 38.7722V9.98819C7.14195 9.49615 7.04344 8.95492 6.79717 8.41368C6.5509 7.87244 6.25537 7.62642 5.81207 7.62642V7.18359H18.4706C20.096 7.18359 21.6229 7.52802 23.002 8.16766C24.4304 8.80731 25.5633 9.74217 26.4006 10.9723C27.2379 12.1531 27.632 13.5308 27.632 15.1053C27.632 17.1227 26.9917 18.7956 25.6618 20.1733C24.3319 21.551 22.6572 22.4366 20.6378 22.8795C21.6229 23.2239 22.5095 23.8143 23.199 24.7ZM18.4706 22.6335C19.6527 22.6335 20.6378 22.289 21.4751 21.551C22.3125 20.8129 22.9528 19.8781 23.3961 18.7464C23.8394 17.6147 24.0364 16.3846 24.0364 15.1545C24.0364 13.8753 23.8394 12.6944 23.3961 11.5627C22.9528 10.431 22.3125 9.49615 21.4751 8.7581C20.6378 8.06925 19.6527 7.67563 18.4706 7.67563H10.7868V22.6335H18.4706Z" fill="black"/>
<path d="M55.1654 13.5308H54.7222C54.7222 11.9071 54.2789 10.5294 53.343 9.39775C52.4072 8.26607 50.7325 7.67563 48.3683 7.67563H41.7681V17.3195H48.3683C49.2549 17.3195 49.8459 17.0243 50.1907 16.4338C50.5355 15.8434 50.6833 15.2037 50.6833 14.5149H51.1265V20.6161H50.6833C50.6833 19.9765 50.437 19.386 49.9937 18.7464C49.5011 18.1067 48.8116 17.8115 47.925 17.8115H41.7681V41.1339H48.3683C52.6042 41.1339 54.7714 39.1658 54.7714 35.2787H55.2147V41.5768H36.7934V41.1339C37.2367 41.1339 37.5322 40.8879 37.7785 40.3467C38.0248 39.8054 38.1233 39.3134 38.1233 38.7722V9.98819C38.1233 9.49615 38.0248 8.95492 37.7785 8.41368C37.5322 7.87244 37.2367 7.62642 36.7934 7.62642V7.18359H55.1654V13.5308Z" fill="black"/>
<path d="M85.1124 7.67563C84.6691 7.67563 84.2751 7.92164 83.8318 8.41368C83.4377 8.90571 83.1422 9.39775 82.9452 9.88978L72.8972 41.5275H70.6315L60.5342 9.84058C60.3865 9.34854 60.0909 8.85651 59.6476 8.36447C59.2536 7.87244 58.8103 7.62642 58.367 7.62642V7.18359H64.8194V7.62642C64.3761 7.62642 64.1298 7.97085 64.1298 8.61049C64.1298 9.10253 64.1791 9.49615 64.3268 9.84058L73.3897 38.3293L82.4526 9.84058C82.6004 9.49615 82.6497 9.05332 82.6497 8.61049C82.6497 7.97085 82.4034 7.62642 81.9601 7.62642V7.18359H85.0631V7.67563H85.1124Z" fill="black"/>
<path d="M106.735 13.5308H106.292C106.292 11.9071 105.849 10.5294 104.913 9.39775C103.977 8.26607 102.302 7.67563 99.9381 7.67563H93.338V17.3195H99.9381C100.825 17.3195 101.416 17.0243 101.761 16.4338C102.105 15.8434 102.253 15.2037 102.253 14.5149H102.696V20.6161H102.253C102.253 19.9765 102.007 19.386 101.564 18.7464C101.071 18.1067 100.381 17.8115 99.4948 17.8115H93.338V41.1339H99.9381C104.174 41.1339 106.341 39.1658 106.341 35.2787H106.785V41.5768H88.4125V41.1339C88.8558 41.1339 89.1513 40.8879 89.3976 40.3467C89.6438 39.8054 89.7424 39.3134 89.7424 38.7722V9.98819C89.7424 9.49615 89.6438 8.95492 89.3976 8.41368C89.1513 7.87244 88.8558 7.62642 88.4125 7.62642V7.18359H106.785V13.5308H106.735Z" fill="black"/>
<path d="M110.971 8.46299C110.725 7.92176 110.429 7.67574 109.986 7.67574V7.23291H116.241V7.67574C115.798 7.67574 115.503 7.92176 115.256 8.46299C115.059 8.95503 114.912 9.49627 114.912 10.0375V38.7723C114.912 39.3135 115.01 39.8547 115.256 40.3468C115.453 40.8388 115.798 41.134 116.241 41.134V41.5769H109.986V41.134C110.429 41.134 110.725 40.888 110.971 40.3468C111.217 39.8055 111.316 39.3135 111.316 38.7723V9.9883C111.316 9.49626 111.217 8.95503 110.971 8.46299Z" fill="black"/>
<path d="M137.618 35.2295V41.5275H119.492V41.0847C119.936 41.0847 120.231 40.8387 120.477 40.2975C120.724 39.7562 120.822 39.2642 120.822 38.723V9.98819C120.822 9.49615 120.724 8.95492 120.477 8.41368C120.231 7.87244 119.936 7.62642 119.492 7.62642V7.18359H125.748V7.62642C125.304 7.62642 125.009 7.87244 124.763 8.41368C124.566 8.90571 124.418 9.44695 124.418 9.98819V41.0847H130.673C133.185 41.0847 134.86 40.5435 135.746 39.4118C136.633 38.2801 137.076 36.9024 137.076 35.2295H137.618Z" fill="black"/>
<path d="M159.241 13.5308H158.798C158.798 11.9071 158.354 10.5294 157.419 9.39775C156.483 8.26607 154.808 7.67563 152.444 7.67563H145.794V17.3195H152.395C153.281 17.3195 153.872 17.0243 154.217 16.4338C154.562 15.8434 154.71 15.2037 154.71 14.5149H155.153V20.6161H154.71C154.71 19.9765 154.463 19.386 154.02 18.7464C153.527 18.1067 152.838 17.8115 151.951 17.8115H145.794V41.1339H152.395C156.63 41.1339 158.798 39.1658 158.798 35.2787H159.241V41.5768H140.869V41.1339C141.312 41.1339 141.608 40.8879 141.854 40.3467C142.1 39.8054 142.199 39.3134 142.199 38.7722V9.98819C142.199 9.49615 142.1 8.95492 141.854 8.41368C141.608 7.87244 141.312 7.62642 140.869 7.62642V7.18359H159.241V13.5308V13.5308Z" fill="black"/>
<path d="M180.273 9.34854C182.785 10.7754 184.755 12.7928 186.233 15.4498C187.661 18.0575 188.4 21.0589 188.4 24.3556C188.4 27.7014 187.661 30.6536 186.233 33.2614C184.804 35.8692 182.785 37.8865 180.273 39.3626C177.761 40.8387 174.953 41.5275 171.85 41.5275H162.492V41.0847C162.935 41.0847 163.231 40.8387 163.477 40.2975C163.723 39.7562 163.822 39.2642 163.822 38.723V9.98819C163.822 9.49615 163.723 8.95492 163.477 8.41368C163.231 7.87244 162.935 7.62642 162.492 7.62642V7.18359H171.85C174.953 7.2328 177.761 7.92164 180.273 9.34854ZM178.894 38.6738C180.815 37.05 182.194 34.9835 183.08 32.4741C183.967 29.9156 184.459 27.2094 184.459 24.3556C184.459 21.5018 184.016 18.7956 183.08 16.2862C182.194 13.7768 180.765 11.7103 178.894 10.1358C176.973 8.56129 174.658 7.77403 171.85 7.77403H167.467V41.0847H171.85C174.658 41.0847 177.022 40.2975 178.894 38.6738Z" fill="black"/>
<path d="M146.238 50.1383C146.238 50.3351 146.188 50.4828 146.09 50.6304C145.991 50.778 145.844 50.9256 145.647 50.9748C145.351 51.1224 145.056 51.1716 144.809 51.0732C144.662 51.024 144.563 50.9748 144.465 50.9256C144.366 50.8764 144.317 50.7288 144.317 50.6304C144.317 50.4828 144.366 50.3351 144.563 50.2367C144.662 50.1875 144.809 50.0891 145.056 50.0399C145.105 50.0399 145.154 50.0399 145.154 50.0891V50.1383L145.105 50.1875C145.006 50.1875 144.957 50.2367 144.908 50.3351C144.859 50.3844 144.809 50.4828 144.809 50.532C144.76 50.7288 144.859 50.8272 145.006 50.9256C145.203 51.0732 145.4 51.024 145.696 50.778C145.794 50.7288 145.844 50.6304 145.893 50.4828C145.942 50.3351 145.942 50.2367 145.942 50.0891C145.893 49.7939 145.696 49.5971 145.351 49.4495C145.105 49.3511 144.859 49.3511 144.612 49.3511C144.366 49.3511 144.12 49.4495 143.923 49.4987C143.775 49.5479 143.627 49.6463 143.479 49.7447C143.332 49.8431 143.233 49.9907 143.184 50.0891V50.1383C143.184 50.1383 143.184 50.1875 143.135 50.1875C143.036 50.3843 143.036 50.6304 143.085 50.8272C143.135 51.024 143.233 51.2208 143.381 51.3684C143.529 51.516 143.676 51.6636 143.873 51.8112C145.006 52.5001 145.45 53.2381 145.203 53.9762C145.006 54.5666 144.612 55.0095 143.972 55.3539C143.184 55.7475 142.445 55.9443 141.755 55.8951C141.164 55.8459 140.721 55.6983 140.376 55.4031C140.229 55.3047 140.081 55.1571 139.982 54.9603C139.884 54.7634 139.835 54.5666 139.835 54.3698C139.835 53.9762 140.032 53.681 140.327 53.435C140.623 53.1889 141.017 53.0413 141.411 53.0413C141.558 53.0413 141.755 53.0413 141.903 53.0905C142.051 53.1397 142.199 53.1889 142.347 53.2873C142.494 53.3858 142.593 53.5334 142.593 53.681C142.593 53.8778 142.544 54.0254 142.445 54.173C142.347 54.3206 142.1 54.419 141.805 54.419H141.755C141.706 54.419 141.706 54.3698 141.706 54.3698C141.706 54.3698 141.706 54.3206 141.755 54.3206C141.903 54.3206 142.002 54.2222 142.1 54.1238C142.199 54.0254 142.199 53.8778 142.15 53.7302C142.1 53.5826 142.051 53.4842 141.903 53.3858C141.805 53.2873 141.657 53.2381 141.509 53.2381C141.361 53.2381 141.214 53.2381 141.066 53.2873C140.82 53.3858 140.672 53.5334 140.524 53.7302C140.376 53.9762 140.327 54.173 140.376 54.419C140.376 54.6158 140.475 54.8127 140.573 55.0095C140.672 55.1571 140.82 55.3047 141.017 55.4031C141.214 55.5015 141.411 55.5507 141.608 55.6491C141.805 55.6983 142.051 55.7475 142.248 55.7475C142.445 55.7475 142.642 55.7475 142.839 55.6983C143.381 55.5999 143.824 55.4031 144.169 55.0587C144.563 54.665 144.711 54.2714 144.662 53.7794C144.662 53.6318 144.612 53.4842 144.514 53.3366C144.465 53.1889 144.366 53.0905 144.218 52.9429C144.12 52.8445 143.972 52.7461 143.873 52.6477C143.775 52.5493 143.627 52.5001 143.479 52.3525C143.332 52.2541 143.184 52.1557 143.085 52.1065C142.839 51.9097 142.691 51.7128 142.593 51.4668C142.494 51.2208 142.494 50.9256 142.544 50.6796C142.642 50.2859 142.888 49.9907 143.282 49.6955C143.824 49.3019 144.465 49.1543 145.154 49.2035C145.253 49.2035 145.302 49.2035 145.4 49.2527C145.647 49.3019 145.844 49.4003 145.991 49.4987C146.139 49.7447 146.238 49.8923 146.238 50.1383Z" fill="black"/>
<path d="M148.109 53.3365C148.159 53.3857 148.208 53.4841 148.208 53.5825C148.208 53.6809 148.208 53.7793 148.208 53.8285C148.208 53.9269 148.159 54.0253 148.159 54.1237C148.109 54.2221 148.109 54.3205 148.06 54.3697C148.011 54.4189 148.011 54.5173 147.962 54.6157C147.814 54.8618 147.617 55.1078 147.42 55.3046C147.223 55.5014 146.977 55.649 146.681 55.7474C146.533 55.7966 146.435 55.8458 146.287 55.8458C146.139 55.8458 146.041 55.8458 145.893 55.7966C145.745 55.7474 145.647 55.6982 145.597 55.5506C145.499 55.3538 145.45 55.1078 145.548 54.8618C145.597 54.665 145.647 54.4681 145.745 54.3205C145.942 54.0253 146.139 53.7301 146.435 53.5333C146.73 53.3365 147.075 53.1889 147.42 53.1396C147.617 53.1396 147.765 53.1396 147.863 53.1889C147.962 53.2381 148.011 53.2873 148.109 53.3365ZM147.518 54.6157C147.617 54.3205 147.666 54.0253 147.666 53.7793C147.666 53.6317 147.617 53.5333 147.518 53.4349C147.469 53.3365 147.371 53.2873 147.272 53.2381C147.124 53.2381 146.927 53.2873 146.681 53.4841C146.533 53.5825 146.435 53.7793 146.287 54.0253C146.09 54.3697 145.991 54.665 145.991 54.9602C145.991 55.3046 146.09 55.5506 146.336 55.5998C146.435 55.649 146.533 55.649 146.681 55.5998C146.779 55.5506 146.878 55.5014 146.977 55.4522C147.223 55.2554 147.42 55.0094 147.518 54.6157Z" fill="black"/>
<path d="M153.577 54.0255C153.577 54.0255 153.577 54.0747 153.577 54.0255C152.887 54.9111 152.444 55.4524 152.148 55.6C151.951 55.7476 151.754 55.7968 151.557 55.846C151.36 55.8952 151.212 55.846 151.114 55.7476C151.065 55.6984 151.015 55.6 151.015 55.5016C151.015 55.4032 151.015 55.3047 151.065 55.2555C151.114 55.2063 151.114 55.1079 151.163 55.0095C151.163 55.0095 151.212 54.9603 151.262 54.8619C151.311 54.7635 151.36 54.6651 151.409 54.5175C151.459 54.4191 151.508 54.3207 151.557 54.2223C151.606 54.1731 151.606 54.0747 151.705 53.9271C151.754 53.8778 151.754 53.7794 151.803 53.681C151.803 53.6318 151.803 53.5826 151.803 53.5334C151.803 53.435 151.705 53.3366 151.557 53.3366C151.508 53.3366 151.508 53.3366 151.508 53.3366C151.508 53.3366 151.459 53.3366 151.459 53.3858C151.459 53.435 151.409 53.435 151.409 53.435C151.36 53.435 151.36 53.4842 151.36 53.4842C151.36 53.4842 151.36 53.5334 151.311 53.5334C151.262 53.5334 151.262 53.5826 151.262 53.5826C151.212 53.6318 151.163 53.681 151.114 53.7302C151.065 53.8286 150.966 53.8778 150.917 53.9271C150.868 53.9763 150.818 54.0747 150.72 54.1731L149.981 55.6984H149.489C149.735 55.1571 149.981 54.6651 150.227 54.1731C150.277 54.1239 150.277 54.0255 150.326 53.9271C150.375 53.8286 150.424 53.7302 150.424 53.681C150.474 53.5334 150.474 53.435 150.375 53.3366C150.277 53.2874 150.178 53.2874 150.08 53.3366C149.981 53.3858 149.883 53.435 149.833 53.4842L149.094 54.3207L148.405 55.6492H147.912C148.553 54.3207 148.897 53.5826 148.996 53.435C149.045 53.3858 149.045 53.3366 149.144 53.3366C149.242 53.3366 149.291 53.2874 149.39 53.2382C149.489 53.189 149.538 53.1398 149.587 53.0414C149.636 52.9922 149.636 52.9922 149.686 52.9922C149.735 52.9922 149.735 53.0414 149.686 53.0906L149.242 53.9271C149.242 53.9271 149.291 53.8779 149.39 53.7794C149.489 53.681 149.538 53.5826 149.636 53.4842C149.735 53.3858 149.784 53.3366 149.833 53.2874C150.129 52.9922 150.424 52.943 150.671 53.0414C150.818 53.0906 150.868 53.189 150.917 53.3366C150.917 53.435 150.917 53.5826 150.868 53.7794C151.163 53.4842 151.36 53.2382 151.508 53.189C151.606 53.1398 151.705 53.0906 151.803 53.0414C151.902 52.9922 152 52.9922 152.099 53.0414C152.198 53.0906 152.296 53.1398 152.345 53.2382C152.395 53.3858 152.395 53.6318 152.198 53.9763C152.099 54.1731 151.951 54.5175 151.705 54.9603C151.656 55.0095 151.656 55.1079 151.656 55.2063C151.656 55.3047 151.656 55.3539 151.754 55.4524C151.853 55.5508 151.951 55.5016 152.148 55.4524C152.247 55.4032 152.345 55.3047 152.493 55.2063C152.641 55.1079 152.838 54.8619 153.183 54.4683C153.527 54.0747 153.626 53.9271 153.675 53.9271C153.527 53.9763 153.527 53.9763 153.577 54.0255C153.577 53.9763 153.577 53.9763 153.577 54.0255Z" fill="black"/>
<path d="M156.089 54.0254C156.089 54.0254 156.089 54.0746 156.089 54.0254C156.089 54.0746 156.039 54.1238 155.99 54.173C155.941 54.2223 155.892 54.2715 155.842 54.3699C155.793 54.4191 155.695 54.5175 155.645 54.6159C155.596 54.7143 155.498 54.8127 155.399 54.9111C155.301 55.0095 155.202 55.1079 155.104 55.2063C155.005 55.3047 154.907 55.4031 154.808 55.4523C154.71 55.5507 154.611 55.5999 154.513 55.6491C154.266 55.7968 154.069 55.846 153.921 55.8952C153.675 55.9444 153.527 55.9444 153.38 55.8952C153.183 55.846 153.084 55.7476 152.986 55.5507C152.936 55.4031 152.936 55.2063 152.936 55.0095C152.986 54.7143 153.133 54.4191 153.33 54.173C153.527 53.927 153.724 53.7302 153.971 53.5334C154.217 53.3366 154.463 53.2382 154.759 53.189C155.005 53.1398 155.202 53.189 155.301 53.2874C155.35 53.3366 155.399 53.435 155.399 53.4842C155.399 53.5826 155.35 53.681 155.301 53.8286C155.153 54.0254 154.907 54.173 154.562 54.2715C154.266 54.3699 153.971 54.3699 153.724 54.4191C153.724 54.4191 153.675 54.4683 153.675 54.5175C153.577 54.8127 153.577 55.0095 153.577 55.1571C153.577 55.3047 153.626 55.4031 153.675 55.5015C153.774 55.5999 153.872 55.6491 153.971 55.6491C154.118 55.6491 154.217 55.6491 154.365 55.5999C154.513 55.5507 154.611 55.5015 154.71 55.4523C154.857 55.3539 155.054 55.2063 155.251 55.0095C155.448 54.8127 155.645 54.5667 155.793 54.3699C155.941 54.173 156.039 54.0746 156.039 54.0254C156.039 53.9762 156.039 53.9762 156.089 54.0254C156.089 53.9762 156.089 53.9762 156.089 54.0254ZM153.823 53.9762C153.774 54.0254 153.774 54.1238 153.675 54.2223C154.02 54.2223 154.365 54.1238 154.611 53.927C154.71 53.8286 154.808 53.7794 154.808 53.681C154.857 53.5826 154.857 53.435 154.759 53.3858C154.71 53.3366 154.66 53.3366 154.562 53.3366C154.512 53.3366 154.414 53.3366 154.365 53.3858C154.217 53.4842 154.069 53.5826 153.971 53.7794C153.921 53.8286 153.872 53.8778 153.823 53.9762Z" fill="black"/>
<path d="M157.911 54.0255C157.911 54.0255 157.911 54.0747 157.911 54.0255C157.222 54.9111 156.778 55.4524 156.483 55.6C156.286 55.7476 156.089 55.7968 155.892 55.846C155.695 55.8952 155.547 55.846 155.448 55.7476C155.399 55.6984 155.35 55.6 155.35 55.5016C155.35 55.4032 155.35 55.3048 155.399 55.2556C155.448 55.2063 155.448 55.1079 155.498 55.0095C155.498 54.9603 155.596 54.8127 155.744 54.5175C155.892 54.2223 156.039 53.8779 156.236 53.5334C156.433 53.189 156.581 52.8446 156.729 52.5494C156.877 52.2541 156.975 52.1065 156.975 52.0573C157.025 52.0081 157.025 51.9589 157.123 51.9589C157.222 51.9097 157.32 51.9097 157.369 51.8605C157.419 51.8113 157.517 51.7621 157.566 51.6637C157.616 51.6145 157.616 51.6145 157.665 51.6145C157.714 51.6145 157.714 51.6637 157.665 51.7129C157.419 52.2049 157.172 52.7462 156.877 53.2382H157.468C157.517 53.2382 157.517 53.2382 157.517 53.2874C157.517 53.3366 157.517 53.3366 157.468 53.3366H156.827C156.236 54.5175 155.941 55.1079 155.941 55.1079C155.842 55.3048 155.842 55.5016 155.941 55.6C156.039 55.6984 156.138 55.6492 156.335 55.6C156.433 55.5508 156.532 55.4524 156.68 55.354C156.827 55.2556 157.025 55.0095 157.369 54.6159C157.714 54.2223 157.813 54.0747 157.862 54.0747C157.862 53.9763 157.862 53.9763 157.911 54.0255C157.911 53.9763 157.911 53.9763 157.911 54.0255Z" fill="black"/>
<path d="M161.26 54.0254C161.26 54.0254 161.26 54.0746 161.26 54.0254C160.571 54.911 160.128 55.4523 159.832 55.5999C159.635 55.7475 159.438 55.7967 159.241 55.8459C159.044 55.8951 158.896 55.8459 158.798 55.7475C158.748 55.6983 158.699 55.5999 158.699 55.5015C158.699 55.4031 158.699 55.3047 158.748 55.2555C158.798 55.2063 158.798 55.1079 158.847 55.0095C158.896 54.911 158.995 54.7634 159.093 54.5174C159.241 54.2714 159.29 54.1238 159.389 53.9762C159.438 53.8286 159.487 53.681 159.487 53.5826C159.487 53.4349 159.438 53.3857 159.29 53.3857C159.241 53.3857 159.192 53.3857 159.142 53.3857C159.093 53.3857 159.044 53.4349 158.995 53.4349C158.945 53.4349 158.896 53.4842 158.847 53.5334C158.798 53.5826 158.748 53.5826 158.748 53.6318C158.699 53.681 158.699 53.681 158.65 53.7302C158.601 53.7794 158.551 53.7794 158.551 53.8286C158.453 53.927 158.305 54.0746 158.108 54.3206L157.369 55.8459H156.877C158.354 52.8937 159.093 51.3192 159.192 51.1716C159.241 51.1224 159.241 51.0732 159.339 51.0732C159.438 51.0732 159.487 51.024 159.586 50.9748C159.684 50.9256 159.734 50.8764 159.783 50.778C159.832 50.7288 159.832 50.7288 159.881 50.7288C159.931 50.7288 159.931 50.778 159.881 50.8272L158.256 54.0746C158.256 54.0746 158.305 54.0746 158.354 54.0254C158.404 53.9762 158.453 53.927 158.502 53.8778C158.551 53.8286 158.601 53.7794 158.65 53.7302C158.896 53.5334 159.044 53.3857 159.192 53.3365C159.438 53.2381 159.684 53.2381 159.832 53.3365C159.98 53.4349 160.029 53.6318 159.931 53.8778C159.931 53.927 159.832 54.0746 159.734 54.3698C159.684 54.419 159.635 54.5666 159.536 54.7634C159.438 54.9603 159.389 55.1079 159.29 55.2063C159.192 55.4031 159.192 55.5999 159.29 55.6983C159.389 55.7967 159.487 55.7475 159.684 55.6983C159.783 55.6491 159.881 55.5507 160.029 55.4523C160.177 55.3539 160.374 55.1079 160.719 54.7142C161.063 54.3206 161.162 54.173 161.211 54.173C161.211 53.9762 161.211 53.9762 161.26 54.0254C161.26 53.9762 161.26 53.9762 161.26 54.0254Z" fill="black"/>
<path d="M162.787 54.0253C162.787 54.0253 162.787 54.0745 162.787 54.0253C162.59 54.2714 162.443 54.4682 162.344 54.6158C162.196 54.7634 162.049 54.9602 161.851 55.157C161.654 55.3538 161.507 55.5014 161.359 55.5998C161.162 55.7475 160.965 55.7967 160.768 55.8459C160.571 55.8951 160.423 55.8459 160.325 55.7475C160.275 55.6983 160.226 55.5998 160.226 55.5014C160.226 55.403 160.226 55.3046 160.275 55.2554C160.325 55.2062 160.325 55.1078 160.374 55.0094C160.768 54.173 161.014 53.6809 161.063 53.5825C161.113 53.5333 161.113 53.4841 161.211 53.4841C161.31 53.4841 161.359 53.4349 161.457 53.3857C161.556 53.3365 161.605 53.2873 161.654 53.1889C161.704 53.1397 161.704 53.1397 161.753 53.1397C161.802 53.1397 161.802 53.1889 161.753 53.2381L160.817 55.157C160.719 55.3538 160.719 55.5506 160.817 55.6491C160.916 55.7475 161.014 55.6983 161.211 55.6491C161.31 55.5998 161.408 55.5014 161.556 55.403C161.704 55.3046 161.901 55.0586 162.246 54.665C162.59 54.2714 162.689 54.1237 162.738 54.1237C162.738 53.9761 162.738 53.9761 162.787 54.0253C162.787 53.9761 162.787 53.9761 162.787 54.0253ZM161.851 52.2048C161.802 52.2048 161.802 52.1556 161.802 52.1064C161.753 51.9588 161.802 51.8604 161.901 51.7128C161.95 51.6636 161.999 51.6144 162.098 51.6144C162.196 51.5652 162.246 51.6144 162.295 51.6636C162.344 51.7128 162.344 51.8112 162.344 51.9096C162.344 52.008 162.295 52.0572 162.246 52.1064C162.196 52.1556 162.147 52.2048 162.049 52.254C161.901 52.254 161.851 52.254 161.851 52.2048Z" fill="black"/>
<path d="M166.137 54.0254C166.137 54.0254 166.087 54.0746 166.137 54.0254C165.447 54.9111 165.004 55.4523 164.708 55.5999C164.511 55.7475 164.314 55.7967 164.117 55.8459C163.92 55.8952 163.772 55.8459 163.674 55.7475C163.625 55.6983 163.575 55.5999 163.575 55.5015C163.575 55.4031 163.575 55.3047 163.625 55.2555C163.625 55.2063 163.674 55.1079 163.723 55.0095C163.772 54.9111 163.822 54.7635 163.969 54.5667C164.068 54.3206 164.166 54.173 164.216 54.0254C164.314 53.8286 164.363 53.681 164.314 53.5826C164.314 53.5334 164.265 53.5334 164.216 53.4842C164.166 53.435 164.117 53.435 164.117 53.435C164.068 53.435 164.019 53.435 163.969 53.435C163.822 53.4842 163.674 53.5826 163.526 53.7794L162.935 54.4683L162.246 55.8459H161.753C162.393 54.5175 162.738 53.7794 162.837 53.6318C162.886 53.5826 162.886 53.5334 162.984 53.5334C163.034 53.5334 163.083 53.4842 163.132 53.4842C163.181 53.4842 163.231 53.435 163.28 53.435C163.329 53.435 163.378 53.3858 163.378 53.3366C163.428 53.2874 163.428 53.2874 163.477 53.2382C163.526 53.189 163.526 53.189 163.575 53.189C163.625 53.189 163.625 53.2382 163.575 53.2874L163.132 54.173C163.329 53.927 163.477 53.7794 163.526 53.7302C163.723 53.5334 163.92 53.3858 164.166 53.2874C164.363 53.2382 164.56 53.2382 164.708 53.3366C164.807 53.3858 164.856 53.4842 164.905 53.5826C164.955 53.681 164.905 53.8286 164.856 53.927C164.807 54.0254 164.807 54.0746 164.758 54.173C164.708 54.2714 164.659 54.3698 164.61 54.4683C164.561 54.5667 164.511 54.6651 164.462 54.7143C164.462 54.7635 164.413 54.8127 164.363 54.9111C164.314 55.0095 164.265 55.1079 164.216 55.2063C164.117 55.4031 164.117 55.5999 164.216 55.6983C164.314 55.7967 164.413 55.7475 164.61 55.6983C164.708 55.6491 164.807 55.5507 164.955 55.4523C165.102 55.3539 165.299 55.1079 165.644 54.7143C165.94 54.3206 166.137 54.173 166.137 54.173C166.038 53.9762 166.087 53.9762 166.137 54.0254C166.087 53.9762 166.087 53.9762 166.137 54.0254Z" fill="black"/>
<path d="M169.782 54.0253C169.782 54.0253 169.782 54.0745 169.782 54.0253C169.141 54.8618 168.649 55.403 168.353 55.649C168.255 55.7474 168.107 55.7966 168.008 55.8459C167.861 55.8951 167.762 55.8951 167.664 55.8459C167.565 55.7966 167.516 55.7474 167.467 55.5998C167.072 56.3379 166.728 56.9283 166.481 57.322C166.383 57.4696 166.186 57.7156 165.89 58.0108C165.644 58.2568 165.447 58.4536 165.25 58.6012C164.856 58.8965 164.511 59.0441 164.216 59.0933C163.92 59.1425 163.772 59.0441 163.674 58.8473C163.625 58.6996 163.625 58.552 163.674 58.3552C163.772 58.1584 163.871 57.9616 164.068 57.7648C164.265 57.568 164.511 57.3712 164.807 57.2235C165.004 57.1251 165.299 56.9283 165.792 56.6823C166.284 56.4363 166.58 56.2887 166.678 56.2395C166.678 56.1903 166.728 56.1903 166.728 56.1411C166.728 56.0919 166.925 55.7474 167.22 55.1078L167.171 55.157C167.072 55.3046 166.925 55.403 166.777 55.5014C166.678 55.5998 166.58 55.649 166.432 55.6982C166.235 55.7966 166.087 55.7966 165.89 55.7474C165.693 55.6982 165.595 55.5506 165.546 55.3538C165.546 55.2062 165.546 55.0586 165.546 54.911C165.644 54.419 165.94 53.9269 166.432 53.5333C166.678 53.3365 166.875 53.1889 167.072 53.1397C167.368 53.0413 167.614 53.0413 167.811 53.1397C167.959 53.2381 168.008 53.3857 168.058 53.5825L168.156 53.3857C168.205 53.3365 168.205 53.2873 168.304 53.2873C168.353 53.2873 168.402 53.2873 168.501 53.2381C168.55 53.1889 168.599 53.1889 168.649 53.1397C168.698 53.0905 168.698 53.0905 168.698 53.0413C168.698 53.0413 168.698 53.0413 168.747 53.0413C168.796 53.0413 168.796 53.0413 168.796 53.0413C168.796 53.0413 168.796 53.0413 168.796 53.0905V53.1397L167.91 54.9602C167.91 54.9602 167.91 55.0094 167.861 55.0586C167.811 55.1078 167.811 55.157 167.811 55.2062C167.811 55.2554 167.811 55.2554 167.762 55.3538C167.762 55.403 167.762 55.4522 167.762 55.5014C167.762 55.5506 167.811 55.5506 167.811 55.5998C167.91 55.6982 168.058 55.6982 168.205 55.5998C168.353 55.5014 168.501 55.403 168.599 55.3046C168.747 55.157 168.944 54.911 169.24 54.5666C169.535 54.2221 169.732 54.0253 169.732 53.9761C169.732 53.9761 169.732 53.9761 169.782 54.0253C169.782 53.9761 169.782 54.0253 169.782 54.0253ZM166.284 56.9283C166.334 56.8299 166.432 56.6823 166.531 56.4855C166.481 56.5347 166.334 56.5839 166.137 56.6823C165.94 56.7807 165.841 56.8299 165.743 56.8791C165.693 56.8791 165.693 56.9283 165.644 56.9283C165.595 56.9283 165.546 56.9775 165.546 56.9775C165.496 56.9775 165.496 57.0267 165.447 57.0267C165.299 57.1251 165.152 57.2235 165.053 57.2727C164.905 57.3712 164.807 57.4204 164.708 57.5188C164.61 57.568 164.511 57.6664 164.413 57.814C164.314 57.9124 164.216 58.06 164.166 58.1584C164.117 58.306 164.068 58.4044 164.068 58.552C164.068 58.6504 164.117 58.7488 164.166 58.7981C164.265 58.8473 164.314 58.8965 164.413 58.8965C164.61 58.8965 164.807 58.7488 165.102 58.552C165.25 58.4044 165.447 58.1584 165.743 57.7648C165.94 57.568 166.087 57.2727 166.284 56.9283ZM167.516 54.6158C167.664 54.3697 167.762 54.1729 167.811 54.0253C167.861 53.7793 167.861 53.5825 167.762 53.4841C167.664 53.3365 167.516 53.2873 167.368 53.3365C167.122 53.4349 166.826 53.5825 166.58 53.9269C166.235 54.3697 166.038 54.8126 166.038 55.2062C166.038 55.3046 166.038 55.403 166.087 55.5014C166.137 55.5998 166.186 55.649 166.284 55.6982C166.432 55.7474 166.629 55.649 166.826 55.5014C167.072 55.3046 167.22 55.1078 167.368 54.911C167.417 54.7634 167.467 54.665 167.516 54.6158Z" fill="black"/>
<path d="M183.868 49.6955C183.918 49.8923 183.868 50.0399 183.721 50.1383C183.622 50.1875 183.573 50.2367 183.524 50.1875C183.474 50.1875 183.474 50.1383 183.474 50.1383V50.0891V50.0399C183.474 49.9415 183.425 49.8923 183.327 49.8431C183.228 49.7939 183.13 49.7939 183.031 49.7939C182.883 49.7939 182.686 49.8431 182.489 49.9415C182.243 50.0399 181.997 50.286 181.75 50.5812C181.406 51.024 181.012 51.6144 180.667 52.4017C180.224 53.3366 179.977 53.8778 179.879 54.1238C179.485 54.9111 179.238 55.4031 179.14 55.5507C179.14 55.5999 179.091 55.5999 179.091 55.6491C179.091 55.6983 179.041 55.6983 179.041 55.7475C179.041 55.7967 178.992 55.7967 178.992 55.8459V55.8951C178.992 55.8951 178.943 55.9443 178.943 55.8951C178.894 55.8951 178.894 55.8459 178.894 55.8459V55.7967C178.943 55.6983 178.992 55.5015 178.992 55.3047C178.992 55.1079 178.992 54.9111 178.992 54.8127C178.992 54.6158 178.943 54.2222 178.844 53.681C178.746 52.9429 178.697 52.3525 178.697 51.9589C178.697 51.9097 178.697 51.9097 178.697 51.8605C178.697 51.4176 178.795 51.024 178.943 50.6796C178.894 50.778 178.795 51.024 178.598 51.3192C178.598 51.3192 178.549 51.4176 178.45 51.6144C178.352 51.8113 178.253 52.0081 178.106 52.2541C178.007 52.4509 177.859 52.7461 177.662 53.0413C177.465 53.3366 177.318 53.6318 177.17 53.8778C177.022 54.1238 176.825 54.3698 176.677 54.6158C176.48 54.8619 176.332 55.0095 176.234 55.1079C175.594 55.6491 175.003 55.9443 174.461 55.9935C174.116 56.0427 173.82 55.9935 173.476 55.9443C173.18 55.8951 172.934 55.7475 172.786 55.5015C172.737 55.4031 172.688 55.3047 172.638 55.2063C172.589 55.0095 172.589 54.8619 172.638 54.6651C172.688 54.4682 172.786 54.3206 172.934 54.2222C173.18 53.9762 173.476 53.8778 173.82 53.8286C174.116 53.7794 174.362 53.8286 174.559 53.927C174.756 54.0254 174.904 54.1238 174.953 54.2714C175.052 54.4682 175.003 54.6651 174.806 54.8127C174.658 54.9603 174.461 55.0095 174.264 54.9603C174.165 54.9603 174.116 54.9111 174.067 54.9111C174.017 54.9111 174.067 54.8619 174.067 54.8619H174.116C174.264 54.8619 174.362 54.8127 174.411 54.7143C174.51 54.6158 174.51 54.5174 174.51 54.3698C174.51 54.2714 174.411 54.173 174.313 54.0746C174.116 53.8778 173.87 53.8778 173.623 53.9762C173.328 54.0746 173.18 54.2714 173.032 54.5666C172.934 54.8619 172.983 55.1079 173.131 55.3539C173.328 55.5999 173.574 55.7475 174.017 55.7967C174.264 55.8459 174.51 55.7967 174.756 55.7475C175.003 55.6983 175.2 55.5999 175.397 55.5015C175.594 55.4031 175.791 55.2555 175.988 55.0587C176.185 54.8619 176.332 54.7143 176.48 54.5666C176.628 54.419 176.726 54.2222 176.874 54.0254C177.022 53.8286 177.12 53.6318 177.219 53.5334C177.268 53.435 177.367 53.2874 177.465 53.0905C177.564 52.8937 177.613 52.8445 177.613 52.7953C178.598 51.0732 179.091 50.1875 179.14 50.1383C179.14 50.1383 179.14 50.1383 179.14 50.0891C179.14 50.0399 179.14 50.0399 179.189 50.0399H179.238L179.288 50.0891V50.1383C179.14 50.4336 179.091 50.8764 179.14 51.4176C179.14 51.8113 179.189 52.3033 179.288 52.8937C179.386 53.5826 179.435 54.0746 179.435 54.3698C179.435 54.4682 179.435 54.6651 179.386 54.9111C179.435 54.7635 179.485 54.6651 179.534 54.6651C179.534 54.6651 179.78 54.173 180.224 53.189C180.519 52.5493 180.765 52.0573 180.962 51.6144C181.012 51.5652 181.012 51.4668 181.061 51.4176C181.258 51.024 181.504 50.6796 181.701 50.3844C181.997 49.9415 182.341 49.6463 182.686 49.4495C182.785 49.4003 182.883 49.3511 182.982 49.3511C183.08 49.3511 183.228 49.3019 183.327 49.3019C183.425 49.3019 183.573 49.3511 183.622 49.4003C183.819 49.4987 183.868 49.5971 183.868 49.6955ZM175.003 51.5652C174.855 51.4668 174.805 51.3192 174.756 51.1224C174.756 50.9256 174.756 50.778 174.806 50.6304C174.953 50.3352 175.101 50.0399 175.347 49.8431C175.643 49.5971 175.938 49.4495 176.332 49.3511C176.874 49.2035 177.268 49.2527 177.613 49.4003C177.712 49.4495 177.81 49.5479 177.958 49.6955L178.007 49.7447C178.056 49.7939 178.056 49.7939 178.106 49.8431C178.155 49.8923 178.155 49.8923 178.155 49.8923C178.204 49.9415 178.204 49.9415 178.253 49.9415C178.303 49.9415 178.303 49.9907 178.352 49.9907C178.549 50.0891 178.697 50.0891 178.894 50.0399C178.992 49.9907 179.091 49.9907 179.091 50.0399C179.091 50.0399 179.091 50.0891 179.041 50.0891C178.992 50.0891 178.992 50.1383 178.943 50.1383C178.598 50.3352 178.253 50.3844 177.909 50.2367C177.859 50.2367 177.81 50.1875 177.761 50.1875C177.712 50.1383 177.662 50.1383 177.613 50.0891C177.564 50.0399 177.515 49.9907 177.515 49.9907C177.515 49.9415 177.465 49.9415 177.416 49.8431C177.219 49.5971 176.973 49.4987 176.628 49.4495C176.283 49.4003 176.037 49.4987 175.791 49.6463C175.544 49.7939 175.347 50.0399 175.249 50.3844C175.2 50.532 175.2 50.6796 175.249 50.8764C175.298 51.0732 175.397 51.1716 175.544 51.27C175.643 51.3192 175.791 51.3684 175.938 51.3192C176.086 51.3192 176.185 51.27 176.332 51.1716C176.431 51.0732 176.48 51.024 176.529 50.9256C176.579 50.778 176.529 50.6304 176.431 50.5812C176.382 50.532 176.283 50.532 176.234 50.532C176.135 50.532 176.086 50.5812 176.037 50.6304L175.988 50.6796L175.938 50.7288H175.889C175.889 50.7288 175.84 50.6796 175.889 50.6796C175.938 50.532 176.037 50.4336 176.135 50.3844C176.234 50.3352 176.332 50.286 176.431 50.286C176.529 50.286 176.628 50.3352 176.726 50.4336C176.825 50.5812 176.825 50.7288 176.726 50.9256C176.628 51.1224 176.529 51.2208 176.332 51.3684C176.185 51.516 176.037 51.5652 175.889 51.6144C175.495 51.7621 175.2 51.7621 175.003 51.5652Z" fill="black"/>
<path d="M183.77 54.0254C183.77 54.0254 183.77 54.0746 183.77 54.0254C183.77 54.0746 183.721 54.1238 183.671 54.173C183.622 54.2223 183.573 54.2715 183.524 54.3699C183.474 54.4191 183.376 54.5175 183.327 54.6159C183.277 54.7143 183.179 54.8127 183.08 54.9111C182.982 55.0095 182.883 55.1079 182.785 55.2063C182.686 55.3047 182.588 55.4031 182.489 55.4523C182.391 55.5507 182.292 55.5999 182.194 55.6491C181.947 55.7968 181.75 55.846 181.603 55.8952C181.356 55.9444 181.209 55.9444 181.061 55.8952C180.864 55.846 180.765 55.7476 180.667 55.5507C180.618 55.4031 180.618 55.2063 180.618 55.0095C180.667 54.7143 180.815 54.4191 181.012 54.173C181.209 53.927 181.406 53.7302 181.652 53.5334C181.898 53.3366 182.144 53.2382 182.44 53.189C182.686 53.1398 182.883 53.189 182.982 53.2874C183.031 53.3366 183.08 53.435 183.08 53.4842C183.08 53.5826 183.031 53.681 182.982 53.8286C182.834 54.0254 182.588 54.173 182.243 54.2715C181.947 54.3699 181.652 54.3699 181.406 54.4191C181.406 54.4191 181.356 54.4683 181.356 54.5175C181.258 54.8127 181.258 55.0095 181.258 55.1571C181.258 55.3047 181.307 55.4031 181.356 55.5015C181.455 55.5999 181.553 55.6491 181.652 55.6491C181.8 55.6491 181.898 55.6491 182.046 55.5999C182.194 55.5507 182.292 55.5015 182.391 55.4523C182.539 55.3539 182.736 55.2063 182.933 55.0095C183.13 54.8127 183.327 54.5667 183.474 54.3699C183.622 54.173 183.721 54.0746 183.721 54.0254C183.671 53.9762 183.721 53.9762 183.77 54.0254C183.77 53.9762 183.77 53.9762 183.77 54.0254ZM181.504 53.9762C181.455 54.0254 181.455 54.1238 181.356 54.2223C181.701 54.2223 182.046 54.1238 182.292 53.927C182.391 53.8286 182.489 53.7794 182.489 53.681C182.539 53.5826 182.539 53.435 182.44 53.3858C182.391 53.3366 182.341 53.3366 182.243 53.3366C182.194 53.3366 182.095 53.3366 182.046 53.3858C181.898 53.4842 181.75 53.5826 181.652 53.7794C181.603 53.8286 181.553 53.8778 181.504 53.9762Z" fill="black"/>
<path d="M187.513 53.5825C187.563 53.9761 187.366 54.3697 186.971 54.911C186.676 55.2554 186.38 55.5506 185.937 55.6982C185.789 55.7474 185.642 55.7966 185.494 55.8458C185.346 55.895 185.198 55.895 185.001 55.8458C184.804 55.7966 184.706 55.6982 184.656 55.5506C184.607 55.403 184.607 55.2062 184.755 55.0094C184.755 55.0094 184.755 55.0094 184.804 54.9602C184.509 55.3538 184.312 55.5506 184.164 55.649C183.967 55.7966 183.77 55.8458 183.573 55.895C183.376 55.9442 183.277 55.895 183.179 55.7966C183.031 55.5998 183.031 55.3538 183.179 55.0094C183.179 54.9602 183.277 54.8126 183.376 54.6157C183.474 54.3697 183.622 54.1729 183.721 53.9269C183.819 53.7301 183.868 53.5825 183.918 53.5825C183.967 53.5333 183.967 53.4841 184.016 53.4841C184.065 53.4841 184.164 53.4349 184.262 53.3857C184.41 53.3365 184.459 53.3365 184.509 53.3365C184.558 53.3365 184.558 53.3365 184.558 53.3365C184.558 53.3365 184.558 53.3365 184.558 53.3857L183.622 55.3046C183.573 55.5014 183.573 55.5998 183.671 55.649C183.77 55.6982 183.918 55.649 184.115 55.5506C184.262 55.4522 184.459 55.3046 184.656 55.0586C184.853 54.8126 185.001 54.5665 185.149 54.3697C185.395 53.8777 185.543 53.5825 185.543 53.5825C185.592 53.5333 185.592 53.4841 185.691 53.4841C185.74 53.4841 185.789 53.4349 185.839 53.4349C185.888 53.3857 185.937 53.3857 186.036 53.3365C186.085 53.2873 186.134 53.2381 186.183 53.1889C186.233 53.1396 186.233 53.1396 186.282 53.1396C186.331 53.1396 186.331 53.1889 186.282 53.2381C185.642 54.5173 185.346 55.157 185.346 55.157C185.346 55.2062 185.297 55.2062 185.297 55.3046C185.248 55.403 185.248 55.5014 185.346 55.5998C185.395 55.6982 185.494 55.7474 185.642 55.7966C185.789 55.8458 185.888 55.7966 185.986 55.7474C186.085 55.6982 186.134 55.6982 186.233 55.5998C186.479 55.4522 186.676 55.2062 186.824 54.9602C186.971 54.665 187.07 54.4189 187.119 54.1237C187.168 53.7793 187.119 53.5825 186.922 53.5333H186.873H186.824C186.824 53.4349 186.873 53.3365 186.922 53.2873C186.971 53.2381 187.07 53.1889 187.168 53.1889C187.267 53.1889 187.365 53.1889 187.415 53.2873C187.513 53.3365 187.563 53.4349 187.563 53.4841C187.464 53.4349 187.513 53.5333 187.513 53.5825Z" fill="black"/>
<path d="M7.43748 55.6983C7.14195 55.8951 6.79717 55.9443 6.45238 55.9443C6.1076 55.9443 5.76282 55.8459 5.46729 55.6983C5.1225 55.5015 4.97474 55.2063 4.97474 54.8619H5.46729C5.46729 55.1079 5.61505 55.2555 5.86133 55.3539C6.05835 55.4523 6.25537 55.5015 6.55089 55.5015C6.79717 55.5015 7.04344 55.4523 7.24046 55.3539C7.48674 55.2555 7.58525 55.0587 7.58525 54.8619C7.58525 54.5666 7.38823 54.3698 6.94493 54.2714C6.74791 54.2222 6.55089 54.173 6.35387 54.173C6.15686 54.173 5.95984 54.0746 5.76282 54.0746C5.31952 53.927 5.1225 53.5826 5.1225 53.1397C5.1225 52.7953 5.27027 52.5493 5.61505 52.3033C5.91058 52.1065 6.20611 52.0081 6.55089 52.0081C6.89568 52.0081 7.24046 52.1065 7.48674 52.3033C7.78227 52.5001 7.93003 52.7953 7.93003 53.1397H7.43748C7.43748 52.9429 7.33897 52.7461 7.0927 52.6477C6.89568 52.5493 6.69866 52.5001 6.50164 52.5001C6.40313 52.5001 6.25537 52.5001 6.15686 52.5493C6.05835 52.5493 5.95984 52.5985 5.86133 52.6477C5.66431 52.7461 5.51654 52.9429 5.51654 53.1397C5.51654 53.435 5.71356 53.6318 6.15686 53.7302L7.33897 53.9762C7.78227 54.1238 7.97929 54.419 7.97929 54.9111C7.93003 55.1571 7.73301 55.4523 7.43748 55.6983Z" fill="black"/>
<path d="M12.363 55.3539C11.9689 55.7475 11.5256 55.9443 10.9838 55.9443C10.442 55.9443 9.94948 55.7475 9.6047 55.3539C9.21066 54.9603 9.01364 54.5174 9.01364 53.9762C9.01364 53.435 9.21066 52.9429 9.6047 52.5985C9.99874 52.2049 10.442 52.0081 10.9838 52.0081C11.5256 52.0081 12.0182 52.2049 12.363 52.5985C12.757 52.9921 12.954 53.435 12.954 53.9762C12.954 54.5174 12.757 54.9603 12.363 55.3539ZM12.0674 52.8937C11.7719 52.5985 11.4271 52.4509 10.9838 52.4509C10.5898 52.4509 10.1958 52.5985 9.90023 52.8937C9.6047 53.1889 9.45694 53.5334 9.45694 53.9762C9.45694 54.419 9.6047 54.7634 9.90023 55.0587C10.1958 55.3539 10.5405 55.5015 10.9838 55.5015C11.3779 55.5015 11.7719 55.3539 12.0674 55.0587C12.363 54.7634 12.5107 54.419 12.5107 53.9762C12.5107 53.5334 12.3137 53.1889 12.0674 52.8937Z" fill="black"/>
<path d="M17.387 55.846V52.697L16.2541 55.846H15.7616L14.5794 52.6478V55.846H14.0869V52.0574H14.8257L15.9586 55.1572L17.0914 52.0574H17.8303V55.846H17.387Z" fill="black"/>
<path d="M19.0616 55.846V52.0574H21.7214V52.5494H19.5542V53.7303H21.2288V54.2223H19.5542V55.4032H21.7214V55.8952H19.0616V55.846Z" fill="black"/>
<path d="M24.4797 52.5494V55.846H23.9871V52.5494H22.7557V52.0574H25.6618V52.5494H24.4797Z" fill="black"/>
<path d="M29.3066 55.846V54.1731H27.2379V55.846H26.7454V52.0574H27.2379V53.7303H29.3066V52.0574H29.7992V55.846H29.3066Z" fill="black"/>
<path d="M30.9813 55.846V52.0574H31.4739V55.846H30.9813Z" fill="black"/>
<path d="M35.2665 55.846L33.1978 52.943V55.846H32.7052V52.0574H33.1978L35.2665 54.9604V52.0574H35.759V55.846H35.2665Z" fill="black"/>
<path d="M39.7487 55.6983C39.4531 55.8459 39.1576 55.9443 38.8128 55.9443C38.271 55.9443 37.7785 55.7475 37.4337 55.3539C37.0397 54.9603 36.8426 54.4682 36.8426 53.9762C36.8426 53.435 37.0397 52.9921 37.4337 52.5985C37.8277 52.2049 38.271 52.0081 38.8128 52.0081C39.1084 52.0081 39.4039 52.0573 39.6994 52.2049C39.9949 52.3525 40.192 52.5493 40.389 52.7953L39.9949 53.0413C39.8472 52.8445 39.6994 52.6969 39.4531 52.5985C39.2561 52.5001 39.0098 52.4509 38.7636 52.4509C38.3695 52.4509 37.9755 52.5985 37.68 52.8937C37.3844 53.1889 37.2367 53.5334 37.2367 53.9762C37.2367 54.419 37.3844 54.7634 37.68 55.0587C37.9755 55.3539 38.3203 55.5015 38.7636 55.5015C39.2561 55.5015 39.6502 55.3047 39.9457 54.9111V54.2222H38.7636V53.7302H40.4382V55.0587C40.2905 55.3047 40.0442 55.5507 39.7487 55.6983Z" fill="black"/>
<path d="M47.8265 55.3539C47.4324 55.7475 46.9891 55.9443 46.4473 55.9443C45.9055 55.9443 45.413 55.7475 45.0682 55.3539C44.6742 54.9603 44.4771 54.5174 44.4771 53.9762C44.4771 53.435 44.6742 52.9429 45.0682 52.5985C45.4622 52.2049 45.9055 52.0081 46.4473 52.0081C46.9891 52.0081 47.4817 52.2049 47.8265 52.5985C48.2205 52.9921 48.4175 53.435 48.4175 53.9762C48.4175 54.5174 48.2205 54.9603 47.8265 55.3539ZM47.4817 52.8937C47.1862 52.5985 46.8414 52.4509 46.3981 52.4509C46.004 52.4509 45.61 52.5985 45.3145 52.8937C45.0189 53.1889 44.8712 53.5334 44.8712 53.9762C44.8712 54.419 45.0189 54.7634 45.3145 55.0587C45.61 55.3539 45.9548 55.5015 46.3981 55.5015C46.7921 55.5015 47.1862 55.3539 47.4817 55.0587C47.7772 54.7634 47.925 54.419 47.925 53.9762C47.925 53.5334 47.7772 53.1889 47.4817 52.8937Z" fill="black"/>
<path d="M49.5011 55.846V52.0574H49.9937V55.354H51.6684V55.846H49.5011Z" fill="black"/>
<path d="M55.5102 55.3048C55.1654 55.6492 54.7222 55.846 54.1803 55.846H52.752V52.0574H54.1803C54.7222 52.0574 55.1654 52.2542 55.5102 52.5986C55.9043 52.9922 56.052 53.4351 56.052 53.9271C56.052 54.4683 55.9043 54.9112 55.5102 55.3048ZM55.1654 52.943C54.8699 52.6478 54.5744 52.5494 54.1803 52.5494H53.2445V55.354H54.1803C54.5744 55.354 54.9192 55.2064 55.1654 54.9604C55.461 54.6651 55.5595 54.3207 55.5595 53.9763C55.6087 53.5827 55.461 53.2383 55.1654 52.943Z" fill="black"/>
<path d="M57.3819 56.4856C57.3819 56.584 57.3327 56.6332 57.2341 56.6332C57.1356 56.6332 57.1356 56.584 57.0864 56.4856L56.8894 55.2063H57.5297L57.3819 56.4856Z" fill="black"/>
</svg>
